PathFileType	4	(X/Y/Z)	F:\Vicon\SynologyDrive\Marcel_BSc\Ayumi_25_09_2024\25-09-2024\conventional_dl_80kg03.trc
DataRate	CameraRate	NumFrames	NumMarkers	Units	OrigDataRate	OrigDataStartFrame	OrigNumFrames
200.0	200.0	95	1	mm	200.0	1401	2801	
Frame#	Time	RBAR			
		X1	Y1	Z1	
1401	6.995	271.39215	618.84509	-1694.887
1402	7	271.53571	621.04974	-1695.0204
1403	7.005	271.70322	623.27271	-1695.144
1404	7.01	271.86447	625.50848	-1695.2932
1405	7.015	272.07568	627.742	-1695.4421
1406	7.02	272.21964	629.97894	-1695.5878
1407	7.025	272.40179	632.20697	-1695.734
1408	7.03	272.56494	634.41864	-1695.8844
1409	7.035	272.72461	636.62048	-1696.0444
1410	7.04	272.85309	638.82434	-1696.2075
1411	7.045	272.97662	640.99841	-1696.3573
1412	7.05	273.10892	643.15948	-1696.5231
1413	7.055	273.25955	645.28674	-1696.6829
1414	7.06	273.41653	647.42548	-1696.858
1415	7.065	273.578	649.52588	-1697.0178
1416	7.07	273.76038	651.60681	-1697.1985
1417	7.075	273.92053	653.66827	-1697.3585
1418	7.08	274.05066	655.69165	-1697.5502
1419	7.085	274.17532	657.7052	-1697.7145
1420	7.09	274.30243	659.69348	-1697.9312
1421	7.095	274.38348	661.65674	-1698.1062
1422	7.1	274.50259	663.5813	-1698.3002
1423	7.105	274.5896	665.4895	-1698.4958
1424	7.11	274.70471	667.34857	-1698.7151
1425	7.115	274.69321	669.22107	-1698.8601
1426	7.12	274.84357	670.98102	-1699.1234
1427	7.125	274.89606	672.75061	-1699.3256
1428	7.13	274.95581	674.4646	-1699.5327
1429	7.135	275.00278	676.15436	-1699.76
1430	7.14	275.01846	677.77789	-1699.9706
1431	7.145	275.04526	679.39587	-1700.1859
1432	7.15	275.07626	680.9776	-1700.4012
1433	7.155	275.11868	682.54266	-1700.6189
1434	7.16	275.10818	684.09515	-1700.8367
1435	7.165	275.10699	685.60083	-1701.0361
1436	7.17	275.07196	687.0882	-1701.2339
1437	7.175	275.02103	688.55701	-1701.4368
1438	7.18	274.94147	689.99811	-1701.6394
1439	7.185	274.8381	691.41541	-1701.8279
1440	7.19	274.74472	692.80304	-1702.0242
1441	7.195	274.60522	694.17889	-1702.1929
1442	7.2	274.48395	695.5509	-1702.3788
1443	7.205	274.34839	696.88727	-1702.5679
1444	7.21	274.20398	698.21204	-1702.7552
1445	7.215	274.04202	699.5271	-1702.9159
1446	7.22	273.86713	700.80951	-1703.0786
1447	7.225	273.69861	702.0589	-1703.267
1448	7.23	273.49496	703.2688	-1703.4271
1449	7.235	273.2832	704.41852	-1703.588
1450	7.24	273.06107	705.53967	-1703.7511
1451	7.245	272.83032	706.62592	-1703.9136
1452	7.25	272.58929	707.66003	-1704.0745
1453	7.255	272.34988	708.65186	-1704.2229
1454	7.26	272.08347	709.62238	-1704.3823
1455	7.265	271.80771	710.56458	-1704.526
1456	7.27	271.55328	711.48035	-1704.6744
1457	7.275	271.27673	712.35052	-1704.8165
1458	7.28	270.99854	713.20996	-1704.9496
1459	7.285	270.72269	714.04773	-1705.083
1460	7.29	270.46948	714.87061	-1705.2059
1461	7.295	270.21286	715.69617	-1705.3477
1462	7.3	269.95285	716.5174	-1705.4795
1463	7.305	269.69907	717.33105	-1705.5896
1464	7.31	269.46432	718.1272	-1705.7134
1465	7.315	269.20807	718.90088	-1705.8268
1466	7.32	268.97052	719.64233	-1705.9242
1467	7.325	268.70688	720.35852	-1706.0342
1468	7.33	268.45947	721.0426	-1706.1329
1469	7.335	268.233	721.7005	-1706.2124
1470	7.34	267.98911	722.3465	-1706.332
1471	7.345	267.77948	722.96387	-1706.4031
1472	7.35	267.56476	723.53711	-1706.5
1473	7.355	267.36771	724.09448	-1706.5413
1474	7.36	267.1604	724.63989	-1706.6178
1475	7.365	266.9563	725.15662	-1706.7043
1476	7.37	266.76385	725.69055	-1706.7703
1477	7.375	266.6185	726.1651	-1706.8336
1478	7.38	266.4559	726.64313	-1706.8984
1479	7.385	266.28806	727.09784	-1706.9495
1480	7.39	266.12762	727.53021	-1706.993
1481	7.395	265.98105	727.93402	-1707.026
1482	7.4	265.86795	728.3252	-1707.0658
1483	7.405	265.77539	728.73077	-1707.1089
1484	7.41	265.68994	729.14252	-1707.1471
1485	7.415	265.61502	729.5603	-1707.167
1486	7.42	265.55811	729.94324	-1707.1947
1487	7.425	265.50638	730.31427	-1707.2285
1488	7.43	265.4566	730.66907	-1707.2501
1489	7.435	265.37918	731.02698	-1707.2589
1490	7.44	265.27792	731.38074	-1707.2494
1491	7.445	265.21375	731.73676	-1707.2533
1492	7.45	265.1394	732.11493	-1707.2556
1493	7.455	265.07846	732.48993	-1707.2526
1494	7.46	265.01535	732.83862	-1707.2524
1495	7.465	264.92728	733.18268	-1707.2285
